<svg xmlns="http://www.w3.org/2000/svg" viewBox="0 0 100 100">
  <defs>
    <linearGradient id="bg" x1="10" y1="8" x2="92" y2="94" gradientUnits="userSpaceOnUse">
      <stop stop-color="#c1272d"/>
      <stop offset="1" stop-color="#7f151d"/>
    </linearGradient>
    <filter id="glow" x="-30%" y="-30%" width="160%" height="160%">
      <feGaussianBlur stdDeviation="2.4" result="blur"/>
      <feMerge>
        <feMergeNode in="blur"/>
        <feMergeNode in="SourceGraphic"/>
      </feMerge>
    </filter>
  </defs>
  <rect width="100" height="100" rx="22" fill="url(#bg)"/>
  <rect x="7" y="7" width="86" height="86" rx="18" fill="none" stroke="#d4a04a" stroke-width="2" opacity=".85"/>
  <path d="M0 71q12-6 25 0t25 0t25 0t25 0" fill="none" stroke="#fff8ef" stroke-width="1.4" opacity=".28"/>
  <path d="M0 82q12-5 25 0t25 0t25 0t25 0" fill="none" stroke="#fff8ef" stroke-width="1.1" opacity=".2"/>
  <g transform="translate(50 48) rotate(-24)" filter="url(#glow)">
    <path d="M-25 8q14-29 36-19q16 7 18 18q-3 15-22 14q-16 0-32-13z" fill="#d4a04a"/>
    <path d="M25 3l15-10l-3 15l3 14l-15-10z" fill="#d4a04a"/>
    <path d="M-2 15l-7 13l14-9z" fill="#a87a2d" opacity=".9"/>
    <circle cx="16" cy="-4" r="3.1" fill="#7f151d"/>
    <circle cx="17" cy="-5" r="1" fill="#fffaf4"/>
    <path d="M-10-3q8 4 0 10m9-12q8 5 0 12m10-14q8 6 0 14" fill="none" stroke="#7f151d" stroke-width="1.5" opacity=".68"/>
  </g>
  <g transform="translate(74 12)">
    <rect width="16" height="16" rx="2" fill="#fff8ef" opacity=".18" stroke="#fff8ef" stroke-width=".8"/>
    <text x="8" y="12" text-anchor="middle" font-family="Noto Serif SC, serif" font-size="11" font-weight="800" fill="#fff8ef">紅</text>
  </g>
</svg>
